X Lossless Decoder version 20110502 (132.0)

XLD extraction logfile from 2011-05-03 16:15:04 +0900

SUEMITSU & THE SUEMITH / Astaire e.p.

Used drive : MATSHITA DVD-R   UJ-868 (revision KB19)

Ripper mode             : CDParanoia III 10.2
Disable audio cache     : OK for the drive with a cache less than 2750KiB
Make use of C2 pointers : NO
Read offset correction  : 102
Max retry count         : 100
Gap status              : Analyzed, Appended

TOC of the extracted CD
     Track |   Start  |  Length  | Start sector | End sector 
    ---------------------------------------------------------
        1  | 00:00:00 | 04:58:00 |         0    |    22349   
        2  | 04:58:00 | 03:49:00 |     22350    |    39524   
        3  | 08:47:00 | 04:20:17 |     39525    |    59041   

AccurateRip Summary
    Disc not found in AccurateRip DB.

All Tracks
    Filename : /Users/m4c/Public/flac/Astaire e.p..flac
    CRC32 hash             : 73290CDA
    CRC32 hash (skip zero) : 4E13FE6D
    Statistics
        Read error                           : 0
        Skipped (treated as error)           : 0
        Edge jitter error (maybe fixed)      : 0
        Atom jitter error (maybe fixed)      : 0
        Drift error (maybe fixed)            : 0
        Dropped bytes error (maybe fixed)    : 0
        Duplicated bytes error (maybe fixed) : 0

Track 01
    Pre-gap length : 00:02:00

    CRC32 hash             : EB6AE908
    CRC32 hash (skip zero) : 0FE066FC
    AccurateRip signature  : 0E12C3D8
        ->Track not present in AccurateRip database.
    Statistics
        Read error                           : 0
        Skipped (treated as error)           : 0
        Edge jitter error (maybe fixed)      : 0
        Atom jitter error (maybe fixed)      : 0
        Drift error (maybe fixed)            : 0
        Dropped bytes error (maybe fixed)    : 0
        Duplicated bytes error (maybe fixed) : 0

Track 02
    Pre-gap length : 00:01:45

    CRC32 hash             : 37A0B579
    CRC32 hash (skip zero) : 9563EA98
    AccurateRip signature  : 9832DE85
        ->Track not present in AccurateRip database.
    Statistics
        Read error                           : 0
        Skipped (treated as error)           : 0
        Edge jitter error (maybe fixed)      : 0
        Atom jitter error (maybe fixed)      : 0
        Drift error (maybe fixed)            : 0
        Dropped bytes error (maybe fixed)    : 0
        Duplicated bytes error (maybe fixed) : 0

Track 03
    Pre-gap length : 00:03:45

    CRC32 hash             : 8C86940B
    CRC32 hash (skip zero) : 9E6B3DDD
    AccurateRip signature  : BF972E83
        ->Track not present in AccurateRip database.
    Statistics
        Read error                           : 0
        Skipped (treated as error)           : 0
        Edge jitter error (maybe fixed)      : 0
        Atom jitter error (maybe fixed)      : 0
        Drift error (maybe fixed)            : 0
        Dropped bytes error (maybe fixed)    : 0
        Duplicated bytes error (maybe fixed) : 0

No errors occurred

End of status report
